<svg width="21" height="19" viewBox="0 0 21 19" fill="none" xmlns="http://www.w3.org/2000/svg">
<path d="M19.0468 0.625C19.3154 0.625 19.5677 0.673828 19.8037 0.771484C20.0397 0.869141 20.2472 1.01156 20.4262 1.19873C20.6053 1.38591 20.7436 1.59342 20.8413 1.82129C20.9389 2.04915 20.9918 2.30143 21 2.57813V16.901C21 17.1696 20.9511 17.4219 20.8535 17.6579C20.7558 17.8939 20.6134 18.1014 20.4262 18.2804C20.2391 18.4595 20.0315 18.5978 19.8037 18.6955C19.5758 18.7931 19.3235 18.846 19.0468 18.8542H2.11975C1.8512 18.8542 1.59892 18.8053 1.36292 18.7077C1.12691 18.61 0.919393 18.4676 0.740357 18.2804C0.56132 18.0933 0.422974 17.8857 0.325317 17.6579C0.227661 17.43 0.174764 17.1777 0.166626 16.901V2.57813C0.166626 2.30957 0.215454 2.05729 0.31311 1.82129C0.410767 1.58529 0.553182 1.37777 0.740357 1.19873C0.927531 1.01969 1.13505 0.881348 1.36292 0.783691C1.59078 0.686035 1.84306 0.633138 2.11975 0.625H19.0468ZM2.11975 2.1875C2.00582 2.1875 1.91223 2.22412 1.83899 2.29736C1.76575 2.37061 1.72913 2.46419 1.72913 2.57813V5.3125H19.4375V2.57813C19.4375 2.46419 19.4008 2.37061 19.3276 2.29736C19.2544 2.22412 19.1608 2.1875 19.0468 2.1875H2.11975ZM19.0468 17.2917C19.1608 17.2917 19.2544 17.255 19.3276 17.1818C19.4008 17.1086 19.4375 17.015 19.4375 16.901V6.875H1.72913V16.901C1.72913 17.015 1.76575 17.1086 1.83899 17.1818C1.91223 17.255 2.00582 17.2917 2.11975 17.2917H19.0468ZM13.1875 11.5625H16.3125V13.125H13.1875V11.5625Z" fill="white"/>
</svg>
