<svg width="24" height="18" viewBox="0 0 24 18" fill="none" xmlns="http://www.w3.org/2000/svg">
<path d="M20.9455 14.6727H3.05457V17.7273H20.9455V14.6727Z" fill="#EDEDED"/>
<path d="M3.11697 9.99188H0V14.6121H3.11697V9.99188Z" fill="#D5D5D5"/>
<path d="M0 14.6121L3.08539 17.7272H3.11697V14.6121H0Z" fill="white"/>
<path d="M24 9.99188H20.8831V14.6121H24V9.99188Z" fill="#D5D5D5"/>
<path d="M20.8831 17.7272H20.9146L24 14.6121H20.8831V17.7272Z" fill="white"/>
<path d="M10.5351 0.272736H7.41815V7.69092H10.5351V0.272736Z" fill="#D5D5D5"/>
<path d="M5.45453 7.44452L7.41811 9.4078V7.44452H5.45453Z" fill="#EDEDED"/>
<path d="M12.4995 7.44452H10.5351V9.4078L12.4995 7.44452Z" fill="#EDEDED"/>
<path d="M17.0806 10.9649H13.9636V3.54675H17.0806V10.9649Z" fill="#D5D5D5"/>
<path d="M12 3.79315L13.9636 1.82987V3.79315H12Z" fill="#EDEDED"/>
<path d="M19.045 3.79315H17.0806V1.82987L19.045 3.79315Z" fill="#EDEDED"/>
<path d="M17.0806 1.82987V3.79315H13.9636V1.82987L15.5225 0.272722L17.0806 1.82987Z" fill="white"/>
</svg>
