<svg width="17" height="19" viewBox="0 0 17 19" fill="none" xmlns="http://www.w3.org/2000/svg">
<path d="M11.5847 2.31253C11.5847 2.31253 11.3763 2.37503 11.0222 2.48961C10.9597 2.30211 10.8763 2.06253 10.7513 1.83336C10.3555 1.07295 9.77217 0.677113 9.06384 0.666697C9.01176 0.666697 8.97009 0.666697 8.91801 0.677113C8.89718 0.65628 8.87634 0.62503 8.85551 0.604197C8.55343 0.270864 8.15759 0.114614 7.68884 0.12503C6.78259 0.15628 5.87634 0.81253 5.13676 1.9792C4.61593 2.80211 4.23051 3.83336 4.11593 4.62503C3.07426 4.94795 2.34509 5.17711 2.32426 5.17711C1.79301 5.34378 1.78259 5.36461 1.70968 5.8542C1.65759 6.2292 0.282593 16.8959 0.282593 16.8959L11.7201 18.875V2.2917C11.668 2.2917 11.6159 2.30211 11.5847 2.31253ZM8.93884 3.13545C8.33467 3.32295 7.66801 3.53128 7.01176 3.7292C7.19926 3.01045 7.55343 2.30211 7.99093 1.83336C8.15759 1.65628 8.37634 1.46878 8.64718 1.3542C8.89718 1.88545 8.94926 2.62503 8.93884 3.13545ZM7.69926 0.729197C7.90759 0.729197 8.09509 0.770864 8.25134 0.87503C8.00134 1.00003 7.77218 1.18753 7.54301 1.42711C6.97009 2.0417 6.52218 3.01045 6.34509 3.93753C5.79301 4.1042 5.26176 4.27086 4.76176 4.42711C5.07426 2.95836 6.30343 0.770863 7.69926 0.729197ZM5.92843 9.05211C5.99093 10.0209 8.55343 10.2396 8.69926 12.5209C8.81384 14.3125 7.75134 15.5417 6.20968 15.6354C4.37634 15.75 3.35551 14.6667 3.35551 14.6667L3.74093 13.0104C3.74093 13.0104 4.76176 13.7813 5.57426 13.7292C6.10551 13.6979 6.29301 13.2604 6.28259 12.9584C6.19926 11.6875 4.11593 11.7604 3.99093 9.67711C3.87634 7.9167 5.03259 6.14586 7.57426 5.9792C8.56384 5.9167 9.06384 6.1667 9.06384 6.1667L8.48051 8.34378C8.48051 8.34378 7.83468 8.05211 7.06384 8.09378C5.93884 8.1667 5.91801 8.87503 5.92843 9.05211ZM9.54301 2.94795C9.53259 2.48961 9.48051 1.84378 9.26176 1.2917C9.94926 1.42711 10.293 2.19795 10.4388 2.6667C10.1784 2.75003 9.87634 2.84378 9.54301 2.94795ZM12.0951 18.8334L16.8451 17.6563C16.8451 17.6563 14.8034 3.84378 14.793 3.75003C14.7826 3.65628 14.6993 3.6042 14.6263 3.59378C14.5534 3.58336 13.2201 3.56253 13.2201 3.56253C13.2201 3.56253 12.4076 2.77086 12.0951 2.46878V18.8334Z" fill="white"/>
</svg>
