<svg width="21" height="22" viewBox="0 0 21 22" fill="none" xmlns="http://www.w3.org/2000/svg">
<path d="M3.99224 7.48509C3.74614 6.94477 3.625 6.36436 3.625 5.75C3.625 5.14742 3.74686 4.56918 3.99006 4.01978C4.2315 3.47435 4.5675 2.99831 4.99708 2.59599C5.42173 2.1983 5.90979 1.88573 6.45775 1.65831C7.01596 1.42664 7.6141 1.31287 8.24695 1.3125C8.24797 1.3125 8.24898 1.3125 8.25 1.3125V1.8125L3.99224 7.48509ZM3.99224 7.48509C4.23291 8.01345 4.56264 8.48166 4.97946 8.88718M3.99224 7.48509L4.97946 8.88718M4.97946 8.88718C5.39973 9.29607 5.8913 9.61436 6.44936 9.84266M4.97946 8.88718L6.44936 9.84266M6.44936 9.84266C7.01417 10.0737 7.61596 10.1875 8.25 10.1875M6.44936 9.84266L8.25 10.1875M8.25 10.1875C8.87774 10.1875 9.47585 10.0734 10.0399 9.84266M8.25 10.1875L10.0399 9.84266M10.0399 9.84266C10.596 9.61517 11.0864 9.30157 11.5064 8.90074M10.0399 9.84266L11.5064 8.90074M11.5064 8.90074C11.9251 8.501 12.2586 8.03235 12.5063 7.49851M11.5064 8.90074L12.5063 7.49851M12.5063 7.49851C12.7605 6.9505 12.8826 6.36445 12.875 5.74674L12.5063 7.49851ZM0.517646 17.0625C0.55833 16.489 0.669397 15.9251 0.85116 15.3699C1.08561 14.6538 1.42338 13.9931 1.8652 13.386C2.30945 12.7756 2.83847 12.2317 3.45405 11.7539C4.05988 11.2836 4.73618 10.9238 5.48583 10.6747L6.50519 10.3359L5.58963 9.77403C5.22181 9.54833 4.89611 9.28985 4.61088 8.99902C4.32314 8.70563 4.07525 8.38484 3.8665 8.03615C3.6625 7.69537 3.51319 7.33437 3.41775 6.95175C3.31969 6.55862 3.26368 6.15562 3.25001 5.7421C3.25104 5.08848 3.38036 4.48123 3.63555 3.91488C3.8964 3.33595 4.25031 2.8312 4.69841 2.39727C5.14394 1.96584 5.67256 1.62409 6.28973 1.3734C6.90048 1.12532 7.55245 1 8.25 1C8.94757 1 9.59528 1.12532 10.1978 1.37269C10.81 1.62402 11.3412 1.96406 11.796 2.39198C12.248 2.81721 12.6036 3.31941 12.8636 3.9028C13.1207 4.47937 13.25 5.09338 13.25 5.75C13.25 6.15831 13.1982 6.55599 13.0949 6.9442C12.9924 7.32974 12.8387 7.69331 12.6335 8.03615C12.4235 8.38687 12.1778 8.709 11.8959 9.00315C11.6218 9.28904 11.2966 9.54511 10.917 9.77003L10.0104 10.3072L10.9999 10.6697C11.6688 10.9148 12.2849 11.2364 12.8497 11.6343C13.4151 12.0327 13.9077 12.4905 14.3292 13.0077C14.7533 13.5282 15.1069 14.097 15.3902 14.7152C15.6355 15.2504 15.8038 15.8101 15.8952 16.3955L15.8118 16.4765L15.4657 16.1417C15.2977 15.364 15.0072 14.6412 14.5935 13.9761C14.1553 13.2716 13.6121 12.6611 12.9656 12.1468C12.32 11.6333 11.5955 11.2314 10.7949 10.9403C9.98609 10.6461 9.13675 10.5 8.25 10.5C7.57774 10.5 6.92545 10.5839 6.29451 10.7529C5.67007 10.92 5.08439 11.1535 4.53891 11.4542C3.99154 11.7559 3.49364 12.1243 3.04622 12.5588C2.6019 12.9902 2.21795 13.4665 1.89531 13.9871C1.57033 14.5115 1.31943 15.0758 1.14235 15.6784C1.01009 16.1285 0.927077 16.5901 0.892923 17.0625H0.517646ZM15.4683 19.617L15.8112 19.9425L16.1553 19.6184L19.8703 16.1196L20.114 16.3523L15.8143 20.4298L13.6463 18.3527L13.8906 18.1195L15.4683 19.617Z" fill="white" stroke="white"/>
</svg>
