<svg width="19" height="19" viewBox="0 0 19 19" fill="none" xmlns="http://www.w3.org/2000/svg">
<path d="M17.7646 11.4531H0.774803C0.667381 11.4531 0.57949 11.541 0.57949 11.6484V13.1133C0.57949 13.2207 0.667381 13.3086 0.774803 13.3086H15.5502L12.0272 17.7764C11.9271 17.9033 12.0175 18.0938 12.1811 18.0938H13.9511C14.0707 18.0938 14.183 18.04 14.2587 17.9448L18.3798 12.7178C18.7826 12.2051 18.4188 11.4531 17.7646 11.4531ZM18.3529 5.69141H3.57754L7.10049 1.22363C7.20058 1.09668 7.11025 0.90625 6.94668 0.90625H5.17666C5.05703 0.90625 4.94473 0.959961 4.86904 1.05518L0.747947 6.28223C0.345115 6.79492 0.708885 7.54688 1.36074 7.54688H18.3529C18.4604 7.54688 18.5482 7.45898 18.5482 7.35156V5.88672C18.5482 5.7793 18.4604 5.69141 18.3529 5.69141Z" fill="white"/>
</svg>
