<svg width="21" height="20" viewBox="0 0 21 20" fill="none" xmlns="http://www.w3.org/2000/svg">
<path d="M10.9362 0C11.8541 0 12.7395 0.117188 13.5924 0.351562C14.4453 0.585938 15.2428 0.921224 15.985 1.35742C16.7272 1.79362 17.401 2.31445 18.0065 2.91992C18.6119 3.52539 19.1328 4.20247 19.569 4.95117C20.0052 5.69987 20.3405 6.4974 20.5748 7.34375C20.8092 8.1901 20.9296 9.07552 20.9362 10C20.9362 10.918 20.819 11.8034 20.5846 12.6562C20.3502 13.5091 20.0149 14.3066 19.5787 15.0488C19.1425 15.791 18.6217 16.4648 18.0162 17.0703C17.4108 17.6758 16.7337 18.1966 15.985 18.6328C15.2363 19.069 14.4388 19.4043 13.5924 19.6387C12.7461 19.873 11.8606 19.9935 10.9362 20C10.0182 20 9.13277 19.8828 8.27991 19.6484C7.42704 19.4141 6.62952 19.0788 5.88733 18.6426C5.14514 18.2064 4.47131 17.6855 3.86584 17.0801C3.26038 16.4746 2.73954 15.7975 2.30334 15.0488C1.86715 14.3001 1.53186 13.5059 1.29749 12.666C1.06311 11.8262 0.942668 10.9375 0.936157 10C0.936157 9.08203 1.05334 8.19661 1.28772 7.34375C1.52209 6.49089 1.85738 5.69336 2.29358 4.95117C2.72978 4.20898 3.25061 3.53516 3.85608 2.92969C4.46155 2.32422 5.13863 1.80339 5.88733 1.36719C6.63603 0.93099 7.4303 0.595703 8.27014 0.361328C9.10999 0.126953 9.99866 0.00651042 10.9362 0ZM18.8365 6.25C18.5892 5.72266 18.2897 5.22786 17.9381 4.76562C17.5865 4.30339 17.1959 3.87695 16.7662 3.48633C16.3365 3.0957 15.8711 2.75391 15.3698 2.46094C14.8684 2.16797 14.3444 1.92383 13.7975 1.72852C14.0319 2.05404 14.2434 2.39909 14.4323 2.76367C14.6211 3.12826 14.7871 3.5026 14.9303 3.88672C15.0735 4.27083 15.2005 4.66471 15.3112 5.06836C15.4218 5.47201 15.513 5.86589 15.5846 6.25H18.8365ZM19.6862 10C19.6862 9.13411 19.5657 8.30078 19.3248 7.5H15.7799C15.832 7.91667 15.8711 8.33008 15.8971 8.74023C15.9231 9.15039 15.9362 9.57031 15.9362 10C15.9362 10.4232 15.9231 10.8398 15.8971 11.25C15.8711 11.6602 15.832 12.0768 15.7799 12.5H19.3248C19.5657 11.6992 19.6862 10.8659 19.6862 10ZM10.9362 18.75C11.2552 18.75 11.5514 18.6621 11.8248 18.4863C12.0983 18.3105 12.3554 18.0794 12.5963 17.793C12.8372 17.5065 13.0455 17.1842 13.2213 16.8262C13.3971 16.4681 13.5631 16.1003 13.7194 15.7227C13.8756 15.3451 13.9961 14.987 14.0807 14.6484C14.1653 14.3099 14.2402 14.0104 14.3053 13.75H7.56702C7.6191 14.0039 7.69397 14.3034 7.79163 14.6484C7.88928 14.9935 8.00973 15.3516 8.15295 15.7227C8.29618 16.0938 8.45894 16.4583 8.64124 16.8164C8.82353 17.1745 9.03512 17.5 9.276 17.793C9.51689 18.0859 9.77079 18.3171 10.0377 18.4863C10.3046 18.6556 10.6041 18.7435 10.9362 18.75ZM14.5201 12.5C14.5722 12.0833 14.6113 11.6699 14.6373 11.2598C14.6634 10.8496 14.6796 10.4297 14.6862 10C14.6862 9.57682 14.6731 9.16016 14.6471 8.75C14.6211 8.33984 14.5787 7.92318 14.5201 7.5H7.35217C7.30009 7.91667 7.26103 8.33008 7.23499 8.74023C7.20894 9.15039 7.19267 9.57031 7.18616 10C7.18616 10.4232 7.19918 10.8398 7.22522 11.25C7.25126 11.6602 7.29358 12.0768 7.35217 12.5H14.5201ZM2.18616 10C2.18616 10.8659 2.3066 11.6992 2.54749 12.5H6.09241C6.04032 12.0833 6.00126 11.6699 5.97522 11.2598C5.94918 10.8496 5.93616 10.4297 5.93616 10C5.93616 9.57682 5.94918 9.16016 5.97522 8.75C6.00126 8.33984 6.04032 7.92318 6.09241 7.5H2.54749C2.3066 8.30078 2.18616 9.13411 2.18616 10ZM10.9362 1.25C10.6171 1.25 10.3209 1.33789 10.0475 1.51367C9.77405 1.68945 9.51689 1.92057 9.276 2.20703C9.03512 2.49349 8.82678 2.81576 8.651 3.17383C8.47522 3.5319 8.3092 3.89974 8.15295 4.27734C7.9967 4.65495 7.87626 5.01302 7.79163 5.35156C7.70699 5.6901 7.63212 5.98958 7.56702 6.25H14.3053C14.2532 5.99609 14.1783 5.69661 14.0807 5.35156C13.983 5.00651 13.8626 4.64844 13.7194 4.27734C13.5761 3.90625 13.4134 3.54167 13.2311 3.18359C13.0488 2.82552 12.8372 2.5 12.5963 2.20703C12.3554 1.91406 12.1015 1.68294 11.8346 1.51367C11.5677 1.3444 11.2682 1.25651 10.9362 1.25ZM8.07483 1.72852C7.52795 1.91732 7.00387 2.16146 6.50256 2.46094C6.00126 2.76042 5.53577 3.10221 5.10608 3.48633C4.67639 3.87044 4.28577 4.29362 3.9342 4.75586C3.58264 5.2181 3.28316 5.71615 3.03577 6.25H6.28772C6.36584 5.85938 6.45699 5.46549 6.56116 5.06836C6.66532 4.67122 6.78902 4.2806 6.93225 3.89648C7.07548 3.51237 7.24475 3.13477 7.44006 2.76367C7.63538 2.39258 7.84696 2.04753 8.07483 1.72852ZM3.03577 13.75C3.28316 14.2773 3.58264 14.7721 3.9342 15.2344C4.28577 15.6966 4.67639 16.123 5.10608 16.5137C5.53577 16.9043 6.00126 17.2461 6.50256 17.5391C7.00387 17.832 7.52795 18.0762 8.07483 18.2715C7.84045 17.946 7.62887 17.6009 7.44006 17.2363C7.25126 16.8717 7.08525 16.4974 6.94202 16.1133C6.79879 15.7292 6.67183 15.3353 6.56116 14.9316C6.45048 14.528 6.35933 14.1341 6.28772 13.75H3.03577ZM13.7975 18.2715C14.3444 18.0827 14.8684 17.8385 15.3698 17.5391C15.8711 17.2396 16.3365 16.8978 16.7662 16.5137C17.1959 16.1296 17.5865 15.7064 17.9381 15.2441C18.2897 14.7819 18.5892 14.2839 18.8365 13.75H15.5846C15.5065 14.1406 15.4153 14.5345 15.3112 14.9316C15.207 15.3288 15.0833 15.7194 14.9401 16.1035C14.7968 16.4876 14.6276 16.8652 14.4323 17.2363C14.2369 17.6074 14.0253 17.9525 13.7975 18.2715Z" fill="white"/>
</svg>
