<svg width="25" height="24" viewBox="0 0 25 24" fill="none" xmlns="http://www.w3.org/2000/svg">
<path d="M22.875 17.1514C22.432 16.9447 21.8808 16.6875 20.8704 16.6875C19.86 16.6875 19.3087 16.9447 18.8658 17.1514C18.4858 17.3287 18.1857 17.4688 17.5219 17.4688C16.8581 17.4688 16.5581 17.3287 16.1782 17.1514C15.7353 16.9447 15.1841 16.6875 14.1737 16.6875C13.1633 16.6875 12.6121 16.9448 12.1692 17.1514C11.7893 17.3287 11.4893 17.4688 10.8255 17.4688C10.1618 17.4688 9.86182 17.3287 9.48193 17.1514C9.03906 16.9447 8.48789 16.6875 7.47754 16.6875C6.46719 16.6875 5.91597 16.9448 5.4731 17.1514C5.09316 17.3287 4.79312 17.4688 4.12939 17.4688C3.46567 17.4688 3.16562 17.3287 2.78569 17.1514C2.34282 16.9448 1.7916 16.6875 0.78125 16.6875V18.25C1.44497 18.25 1.74502 18.39 2.12495 18.5674C2.56782 18.774 3.11904 19.0312 4.12939 19.0312C5.13975 19.0312 5.69097 18.774 6.13384 18.5674C6.51377 18.3901 6.81382 18.25 7.47754 18.25C8.14126 18.25 8.44126 18.39 8.82114 18.5674C9.26401 18.774 9.81519 19.0312 10.8255 19.0312C11.8359 19.0312 12.3871 18.774 12.83 18.5674C13.2099 18.3901 13.51 18.25 14.1737 18.25C14.8374 18.25 15.1375 18.39 15.5174 18.5674C15.9604 18.774 16.5115 19.0312 17.5219 19.0312C18.5323 19.0312 19.0836 18.774 19.5265 18.5674C19.9064 18.3901 20.2066 18.25 20.8704 18.25C21.5341 18.25 21.8343 18.39 22.2142 18.5674C22.6571 18.7741 23.2083 19.0312 24.2188 19.0312V17.4688C23.555 17.4688 23.2548 17.3287 22.875 17.1514Z" fill="white"/>
<path d="M20.8704 21.375C19.86 21.375 19.3087 21.6322 18.8658 21.8389C18.4858 22.0162 18.1857 22.1562 17.5219 22.1562C16.8581 22.1562 16.5581 22.0162 16.1782 21.8389C15.7353 21.6322 15.1841 21.375 14.1737 21.375C13.1633 21.375 12.6121 21.6323 12.1692 21.8389C11.7893 22.0162 11.4893 22.1562 10.8255 22.1562C10.1618 22.1562 9.86182 22.0162 9.48193 21.8389C9.03906 21.6322 8.48789 21.375 7.47754 21.375C6.46719 21.375 5.91597 21.6323 5.4731 21.8389C5.09316 22.0162 4.79312 22.1562 4.12939 22.1562C3.46567 22.1562 3.16562 22.0162 2.78569 21.8389C2.34282 21.6323 1.7916 21.375 0.78125 21.375V22.9375C1.44497 22.9375 1.74502 23.0775 2.12495 23.2549C2.56782 23.4615 3.11904 23.7188 4.12939 23.7188C5.13975 23.7188 5.69097 23.4615 6.13384 23.2549C6.51377 23.0776 6.81382 22.9375 7.47754 22.9375C8.14126 22.9375 8.44126 23.0775 8.82114 23.2549C9.26401 23.4615 9.81519 23.7188 10.8255 23.7188C11.8359 23.7188 12.3871 23.4615 12.83 23.2549C13.2099 23.0776 13.51 22.9375 14.1737 22.9375C14.8374 22.9375 15.1375 23.0775 15.5174 23.2549C15.9604 23.4615 16.5115 23.7188 17.5219 23.7188C18.5323 23.7188 19.0836 23.4615 19.5265 23.2549C19.9064 23.0776 20.2066 22.9375 20.8704 22.9375C21.5341 22.9375 21.8343 23.0775 22.2142 23.2549C22.6571 23.4616 23.2083 23.7188 24.2188 23.7188V22.1562C23.555 22.1562 23.2548 22.0162 22.875 21.8389C22.432 21.6322 21.8808 21.375 20.8704 21.375Z" fill="white"/>
<path d="M12.1094 12.7812H19.1406V15.5156H20.7031V5.15811C20.7025 4.68389 20.8464 4.22074 21.1155 3.83032L23.5555 0.28125H21.6593L19.8279 2.94512C19.3793 3.59583 19.1396 4.36775 19.1406 5.15811V7.3125H12.1094V5.15811C12.1088 4.68389 12.2526 4.22074 12.5218 3.83032L14.9618 0.28125H13.0656L11.2342 2.94512C10.7856 3.59583 10.5459 4.36775 10.5469 5.15811V15.5156H12.1094V12.7812ZM12.1094 8.875H19.1406V11.2188H12.1094V8.875Z" fill="white"/>
</svg>
