<svg width="22" height="22" viewBox="0 0 22 22" fill="none" xmlns="http://www.w3.org/2000/svg">
<path d="M13.6667 20.3333H9.66667C9.48986 20.3333 9.32029 20.4036 9.19526 20.5286C9.07024 20.6536 9 20.8232 9 21C9 21.1768 9.07024 21.3464 9.19526 21.4714C9.32029 21.5964 9.48986 21.6667 9.66667 21.6667H13.6667C13.8435 21.6667 14.013 21.5964 14.1381 21.4714C14.2631 21.3464 14.3333 21.1768 14.3333 21C14.3333 20.8232 14.2631 20.6536 14.1381 20.5286C14.013 20.4036 13.8435 20.3333 13.6667 20.3333Z" fill="white"/>
<path d="M20.8 20.3333H16.1333C15.9565 20.3333 15.787 20.4036 15.6619 20.5286C15.5369 20.6536 15.4667 20.8232 15.4667 21C15.4667 21.1768 15.5369 21.3464 15.6619 21.4714C15.787 21.5964 15.9565 21.6667 16.1333 21.6667H20.8C20.9768 21.6667 21.1464 21.5964 21.2714 21.4714C21.3964 21.3464 21.4667 21.1768 21.4667 21C21.4667 20.8232 21.3964 20.6536 21.2714 20.5286C21.1464 20.4036 20.9768 20.3333 20.8 20.3333Z" fill="white"/>
<path d="M21.4934 16.3333C21.298 13.986 20.6601 11.6968 19.6134 9.58668C18.6107 7.67983 17.1659 6.0408 15.4 4.80668L17 1.28001C17.0516 1.17461 17.0745 1.05747 17.0663 0.940409C17.0581 0.823351 17.0191 0.71053 16.9534 0.613346C16.8927 0.52809 16.8128 0.458318 16.7201 0.409675C16.6275 0.361032 16.5247 0.334883 16.42 0.333346H5.53336C5.42129 0.333068 5.31096 0.361048 5.21256 0.414701C5.11416 0.468353 5.03088 0.545945 4.97041 0.640305C4.90994 0.734664 4.87424 0.842745 4.8666 0.954557C4.85895 1.06637 4.87962 1.1783 4.9267 1.28001L6.56003 4.82001C4.80701 6.0553 3.37215 7.68894 2.37336 9.58668C0.940029 12.2533 0.493362 15.5133 0.373362 17.7733C0.353713 18.1042 0.402805 18.4355 0.517543 18.7465C0.632282 19.0574 0.81018 19.3412 1.04003 19.58C1.2816 19.8146 1.56764 19.9986 1.88134 20.1211C2.19503 20.2436 2.53005 20.3022 2.8667 20.2933H7.00003V19H2.81336C2.66249 18.9995 2.51326 18.9686 2.37464 18.909C2.23602 18.8494 2.11087 18.7625 2.0067 18.6533C1.90237 18.5451 1.82179 18.4162 1.77013 18.275C1.71847 18.1338 1.69687 17.9834 1.7067 17.8333C1.80003 16.0933 2.1667 12.78 3.5467 10.2C4.51952 8.35141 5.95805 6.78879 7.72003 5.66668H8.3867C7.93493 6.29165 7.51871 6.94157 7.14003 7.61334C6.75434 8.32817 6.42662 9.07278 6.16003 9.84001L7.07336 10.4533C7.3432 9.65734 7.67534 8.88383 8.0667 8.14001C8.54727 7.27512 9.09331 6.44826 9.70003 5.66668H10.3667C10.8139 6.7356 11.1296 7.85492 11.3067 9.00001C11.4515 9.85008 11.5229 10.711 11.52 11.5733L12.5734 10.8333C12.544 10.1629 12.4728 9.49491 12.36 8.83334C12.1812 7.75213 11.8953 6.69137 11.5067 5.66668H12.0267L12.6334 4.33334H7.8067L6.57336 1.66668H15.38L13.7134 5.31334C13.9991 5.46637 14.2731 5.64017 14.5334 5.83334C16.1668 6.96028 17.5064 8.46221 18.44 10.2133C19.3752 12.1335 19.9556 14.2068 20.1534 16.3333H21.4934Z" fill="white"/>
</svg>
