<svg width="18" height="18" viewBox="0 0 18 18" fill="none" xmlns="http://www.w3.org/2000/svg">
<path d="M10.9531 0.799536L10.9531 17.7893C10.9531 17.8967 11.041 17.9846 11.1484 17.9846H12.6133C12.7207 17.9846 12.8086 17.8967 12.8086 17.7893L12.8086 3.01389L17.2764 6.53684C17.4033 6.63694 17.5938 6.54661 17.5938 6.38303V4.61301C17.5938 4.49338 17.54 4.38108 17.4448 4.3054L12.2178 0.184303C11.7051 -0.218529 10.9531 0.145239 10.9531 0.799536ZM5.19141 0.211157L5.19141 14.9865L0.723633 11.4636C0.59668 11.3635 0.40625 11.4538 0.40625 11.6174L0.40625 13.3874C0.40625 13.5071 0.459961 13.6194 0.555176 13.695L5.78223 17.8161C6.29492 18.219 7.04688 17.8552 7.04688 17.2033L7.04688 0.211157C7.04688 0.103735 6.95898 0.0158443 6.85156 0.0158443H5.38672C5.2793 0.0158443 5.19141 0.103735 5.19141 0.211157Z" fill="black"/>
</svg>
