<svg width="50" height="52" viewBox="0 0 50 52" fill="none" xmlns="http://www.w3.org/2000/svg">
<path d="M19.5312 48.9617L19.5312 1.3904C19.5312 1.08961 19.2852 0.84352 18.9844 0.84352L14.8828 0.84352C14.582 0.84352 14.3359 1.08961 14.3359 1.3904L14.3359 42.7615L1.82617 32.8972C1.4707 32.617 0.9375 32.8699 0.9375 33.3279V38.284C0.9375 38.6189 1.08789 38.9334 1.35449 39.1453L15.9902 50.6843C17.4258 51.8123 19.5312 50.7937 19.5312 48.9617ZM35.6641 50.6091L35.6641 9.23805L48.1738 19.1023C48.5293 19.3826 49.0625 19.1297 49.0625 18.6716V13.7156C49.0625 13.3806 48.9121 13.0662 48.6455 12.8543L34.0098 1.3152C32.5742 0.18727 30.4688 1.20583 30.4688 3.03102L30.4687 50.6091C30.4687 50.9099 30.7148 51.156 31.0156 51.156H35.1172C35.418 51.156 35.6641 50.9099 35.6641 50.6091Z" fill="white" fill-opacity="0.1"/>
</svg>
