<svg width="32" height="32" viewBox="0 0 32 32" fill="none" xmlns="http://www.w3.org/2000/svg">
<rect width="32" height="32" rx="5" fill="white"/>
<g clip-path="url(#clip0_4048_17584)">
<path d="M25.9761 15.3139V15.3092C25.9761 15.2708 25.97 15.2323 25.9669 15.1946L25.9569 15.0739V15.0646C25.9369 14.8472 25.91 14.6318 25.8761 14.4185H23.4838C23.3674 14.4177 23.2531 14.4499 23.1542 14.5114C23.0554 14.573 22.976 14.6613 22.9254 14.7662L22.1177 16.4046L21.1554 12.3354C21.122 12.1959 21.0415 12.0721 20.9274 11.9851C20.8134 11.8981 20.6728 11.853 20.5294 11.8577C20.386 11.8623 20.2486 11.9162 20.1404 12.0104C20.0321 12.1046 19.9597 12.2332 19.9354 12.3746L19.2 16.6985L18.45 10.1923C18.4341 10.0404 18.3624 9.89983 18.2486 9.79789C18.1349 9.69596 17.9873 9.63996 17.8346 9.64079C17.682 9.63994 17.5345 9.69584 17.4208 9.79761C17.3071 9.89939 17.2352 10.0398 17.2192 10.1916L15.8538 21.8608C15.847 21.9192 15.8517 21.9785 15.8678 22.0351C15.8838 22.0917 15.9108 22.1446 15.9474 22.1907C15.9839 22.2369 16.0291 22.2754 16.0805 22.3041C16.1319 22.3327 16.1885 22.3509 16.2469 22.3577C16.2643 22.3587 16.2818 22.3587 16.2992 22.3577C16.4089 22.3575 16.5147 22.317 16.5965 22.244C16.6783 22.171 16.7304 22.0705 16.7431 21.9616L17.8354 12.6254L18.5354 18.7023C18.5544 18.8497 18.6254 18.9854 18.7356 19.085C18.8459 19.1846 18.9881 19.2416 19.1366 19.2456C19.2851 19.2496 19.4302 19.2003 19.5456 19.1068C19.6611 19.0133 19.7393 18.8815 19.7661 18.7354L20.5969 13.8493L21.4246 17.35C21.4542 17.4747 21.5216 17.5872 21.6175 17.6722C21.7134 17.7572 21.8331 17.8106 21.9605 17.825C22.0878 17.8395 22.2165 17.8144 22.329 17.753C22.4415 17.6917 22.5324 17.5972 22.5892 17.4823L23.6569 15.3154H24.85C24.8677 15.5416 24.8769 15.7708 24.8769 16.0016C24.877 18.151 24.0969 20.2274 22.6815 21.845C21.2661 23.4626 19.3116 24.5114 17.1812 24.7966C15.0507 25.0818 12.8892 24.584 11.0982 23.3956C9.30711 22.2073 8.00831 20.4092 7.44307 18.3354H6.2746C6.84477 20.7179 8.26968 22.8083 10.279 24.2098C12.2883 25.6113 14.7421 26.2266 17.175 25.9387C19.6078 25.6509 21.8503 24.48 23.4771 22.6483C25.1038 20.8165 26.0016 18.4514 26 16.0016C26 15.7693 25.9915 15.5408 25.9761 15.3139Z" fill="#303030"/>
<path d="M16 6C13.3478 6 10.8043 7.05356 8.92894 8.92892C7.05357 10.8043 6 13.3478 6 16C6 16.2308 6.00924 16.4615 6.02463 16.6862C6.02463 16.7323 6.03155 16.7785 6.0354 16.8246C6.0354 16.8508 6.0354 16.8769 6.04155 16.9015C6.04924 16.9897 6.05822 17.0777 6.06848 17.1654V17.1808C6.08463 17.3146 6.10231 17.4485 6.12308 17.5808H8.5154C8.63185 17.5816 8.74613 17.5493 8.84499 17.4878C8.94384 17.4263 9.0232 17.3379 9.07385 17.2331L9.88155 15.5946L10.8438 19.6638C10.8769 19.8038 10.9573 19.928 11.0715 20.0154C11.1857 20.1029 11.3266 20.1481 11.4703 20.1435C11.614 20.1388 11.7517 20.0847 11.86 19.9901C11.9684 19.8955 12.0406 19.7664 12.0646 19.6246L12.8 15.3008L13.55 21.8069C13.5658 21.9588 13.6376 22.0994 13.7513 22.2013C13.8651 22.3033 14.0127 22.3593 14.1654 22.3585C14.318 22.3593 14.4655 22.3034 14.5792 22.2016C14.6929 22.0999 14.7648 21.9595 14.7808 21.8077L16.1462 10.1385C16.154 10.0796 16.15 10.0198 16.1345 9.96244C16.1189 9.90512 16.0922 9.85147 16.0557 9.8046C16.0192 9.75774 15.9738 9.7186 15.922 9.68946C15.8703 9.66032 15.8133 9.64176 15.7543 9.63487C15.6953 9.62798 15.6355 9.63289 15.5785 9.64933C15.5214 9.66576 15.4682 9.69338 15.4219 9.73059C15.3756 9.76779 15.3372 9.81383 15.3089 9.86603C15.2805 9.91822 15.2629 9.97553 15.2569 10.0346L14.1646 19.3708L13.4646 13.2938C13.4456 13.1465 13.3746 13.0108 13.2644 12.9112C13.1541 12.8115 13.0119 12.7546 12.8634 12.7506C12.7149 12.7466 12.5698 12.7958 12.4544 12.8894C12.3389 12.9829 12.2607 13.1146 12.2338 13.2608L11.4031 18.1469L10.5754 14.6461C10.5458 14.5215 10.4784 14.409 10.3825 14.324C10.2866 14.239 10.1669 14.1856 10.0395 14.1711C9.91222 14.1567 9.78352 14.1818 9.67101 14.2431C9.55849 14.3045 9.46763 14.399 9.41079 14.5138L8.34309 16.6808H7.14925C7.13181 16.4541 7.12309 16.2254 7.12309 15.9946C7.12298 13.8452 7.90309 11.7688 9.3185 10.1512C10.7339 8.53356 12.6884 7.48474 14.8188 7.19954C16.9493 6.91434 19.1108 7.41216 20.9018 8.60052C22.6929 9.78888 23.9917 11.587 24.5569 13.6608H25.7208C25.1956 11.478 23.9512 9.53547 22.1879 8.14586C20.4246 6.75624 18.245 6.0004 16 6Z" fill="#303030"/>
</g>
<defs>
<clipPath id="clip0_4048_17584">
<rect width="20" height="20" fill="white" transform="translate(6 6)"/>
</clipPath>
</defs>
</svg>
