<svg width="32" height="32" viewBox="0 0 32 32" fill="none" xmlns="http://www.w3.org/2000/svg">
<rect width="32" height="32" rx="5" fill="white"/>
<path d="M5.78697 15.9773C7.73072 14.9567 9.90048 14.1049 11.9278 13.2487C15.4156 11.8464 18.9172 10.4683 22.4541 9.18541C23.1423 8.96683 24.3788 8.75309 24.5 9.72519C24.4336 11.1012 24.1605 12.4692 23.9732 13.8372C23.4977 16.8456 22.9482 19.8436 22.4123 22.842C22.2276 23.8408 20.9151 24.3578 20.0753 23.7187C18.057 22.4192 16.0231 21.1322 14.0306 19.8025C13.3779 19.1703 13.9832 18.2624 14.5661 17.811C16.2284 16.2493 17.9913 14.9225 19.5668 13.2802C19.9918 12.302 18.7361 13.1264 18.3219 13.379C16.0462 14.874 13.8261 16.4602 11.4268 17.774C10.2012 18.4171 8.77274 17.8675 7.54771 17.5087C6.44934 17.0752 4.83978 16.6384 5.78686 15.9774L5.78697 15.9773Z" fill="#303030"/>
</svg>
