<svg width="32" height="32" viewBox="0 0 32 32" fill="none" xmlns="http://www.w3.org/2000/svg">
<rect width="32" height="32" rx="5" fill="white"/>
<path d="M25.5023 9.88204C24.7852 10.1914 24.0047 10.4141 23.2008 10.5008C24.0354 10.0049 24.6604 9.22157 24.9586 8.29767C24.1754 8.76358 23.3174 9.09028 22.4227 9.26329C22.0487 8.86351 21.5964 8.54502 21.094 8.32768C20.5916 8.11034 20.0498 7.9988 19.5023 8.00001C17.2875 8.00001 15.5062 9.79532 15.5062 11.9984C15.5062 12.3078 15.5437 12.6172 15.6047 12.9149C12.2883 12.7414 9.33047 11.157 7.36406 8.73126C7.00576 9.34325 6.818 10.0401 6.82031 10.7492C6.82031 12.1367 7.52578 13.3602 8.60156 14.0797C7.96759 14.0547 7.34846 13.8805 6.79453 13.5711V13.6203C6.79453 15.5633 8.16797 17.1734 9.99844 17.5438C9.65475 17.633 9.30119 17.6787 8.94609 17.6797C8.68594 17.6797 8.43984 17.6539 8.19141 17.6188C8.69766 19.2031 10.1719 20.3539 11.9273 20.3914C10.5539 21.4672 8.83359 22.1 6.96563 22.1C6.63047 22.1 6.32109 22.0883 6 22.0508C7.77187 23.1875 9.87422 23.8438 12.1383 23.8438C19.4883 23.8438 23.5102 17.7547 23.5102 12.4695C23.5102 12.2961 23.5102 12.1227 23.4984 11.9492C24.2766 11.3797 24.9586 10.6742 25.5023 9.88204Z" fill="#303030"/>
</svg>
