<svg width="32" height="32" viewBox="0 0 32 32" fill="none" xmlns="http://www.w3.org/2000/svg">
<rect width="32" height="32" rx="5" fill="white"/>
<path d="M24.0633 10.6828L25.5 9.30234V9H20.5242L16.9781 17.8688L12.9445 9H7.72734V9.30234L9.40547 11.332C9.56953 11.482 9.65391 11.7023 9.63281 11.9227V19.8984C9.68438 20.1867 9.59297 20.4797 9.39141 20.6883L7.5 22.9922V23.2898H12.8578V22.9875L10.9688 20.6906C10.8675 20.5879 10.7914 20.4631 10.7463 20.3261C10.7012 20.1891 10.6883 20.0436 10.7086 19.9008V13.0008L15.4125 23.2945H15.9586L20.0039 13.0008V21.2016C20.0039 21.4172 20.0039 21.4617 19.8633 21.6047L18.4078 23.018V23.3203H25.4672V23.018L24.0633 21.6375C23.9414 21.5438 23.8781 21.3867 23.9039 21.2344V11.0859C23.8918 11.0106 23.9002 10.9334 23.9282 10.8625C23.9563 10.7915 24.0029 10.7295 24.0633 10.6828Z" fill="#303030"/>
</svg>
