<svg width="26" height="18" viewBox="0 0 26 18" fill="none" xmlns="http://www.w3.org/2000/svg">
<path d="M22.116 1.90102C19.7848 0.735703 16.5474 0.09375 13 0.09375C9.45262 0.09375 6.21508 0.735703 3.88398 1.90102C1.63434 3.02602 0.34375 4.58836 0.34375 6.1875V11.8125C0.34375 13.4116 1.63422 14.974 3.88398 16.099C4.34793 16.3291 4.82482 16.5322 5.31227 16.7072C5.32375 16.7123 5.33594 16.7154 5.34777 16.7195C7.49043 17.4896 10.1441 17.9062 13 17.9062C15.8557 17.9062 18.5096 17.4896 20.6522 16.7195C20.6639 16.7154 20.6763 16.7123 20.6877 16.7073C21.1751 16.5323 21.652 16.3292 22.1159 16.0991C24.366 14.9739 25.6562 13.4115 25.6562 11.8125V6.1875C25.6562 4.58836 24.3658 3.02602 22.116 1.90102ZM13 1.03125C20.2384 1.03125 24.7188 3.7077 24.7188 6.1875C24.7188 8.6673 20.2384 11.3438 13 11.3438C5.76156 11.3438 1.28125 8.6673 1.28125 6.1875C1.28125 3.7077 5.76156 1.03125 13 1.03125ZM12.5312 12.276V16.9634C9.94773 16.9214 7.73312 16.5356 5.96875 15.9423V11.3021C7.87117 11.9 10.1218 12.2372 12.5312 12.276ZM13.4688 12.276C15.8782 12.2372 18.1288 11.9 20.0312 11.3021V15.9423C18.2669 16.5356 16.0523 16.9214 13.4688 16.9634V12.276ZM1.28125 11.8125V8.52141C1.88477 9.2475 2.76578 9.91477 3.88398 10.474C4.24469 10.6543 4.62941 10.8205 5.03125 10.9752V15.5903C2.62727 14.5863 1.28125 13.1704 1.28125 11.8125ZM24.7188 11.8125C24.7188 13.1704 23.3727 14.5863 20.9688 15.5903V10.9752C21.3706 10.8205 21.7553 10.6543 22.116 10.474C23.2342 9.91477 24.1152 9.2475 24.7188 8.52141V11.8125Z" fill="black"/>
</svg>
