<svg width="24" height="24" viewBox="0 0 24 24" fill="none" xmlns="http://www.w3.org/2000/svg">
<path d="M23.9976 11.1781C24.0008 11.1322 24.0008 11.0862 23.9976 11.0403C24.0006 10.9924 24.0006 10.9443 23.9976 10.8964C23.9976 10.6327 23.9436 10.375 23.9016 10.1173H20.9979C20.8586 10.1173 20.7221 10.1567 20.6042 10.2309C20.4864 10.3052 20.392 10.4112 20.332 10.5368L19.3601 12.5027L18.2022 7.6179C18.1599 7.45253 18.0624 7.30654 17.9258 7.20406C17.7892 7.10158 17.6217 7.04877 17.451 7.05436C17.2802 7.05996 17.1165 7.12362 16.9869 7.23481C16.8573 7.34601 16.7696 7.49807 16.7383 7.66585L15.8564 12.8564L14.9565 5.06459C14.9358 4.88236 14.8484 4.71422 14.711 4.59251C14.5737 4.4708 14.3962 4.40412 14.2126 4.40529C14.0297 4.40427 13.8529 4.47115 13.7165 4.59297C13.5802 4.7148 13.494 4.88287 13.4747 5.06459L11.8368 19.0299C11.8276 19.1 11.8324 19.1713 11.851 19.2395C11.8697 19.3078 11.9017 19.3716 11.9452 19.4274C11.9888 19.4832 12.043 19.5298 12.1047 19.5644C12.1664 19.5991 12.2344 19.6211 12.3048 19.6292H12.3708C12.5022 19.6288 12.629 19.5804 12.7273 19.4932C12.8256 19.4061 12.8887 19.2861 12.9047 19.1557L14.2126 7.94755L15.0585 15.2419C15.0845 15.4158 15.171 15.575 15.3026 15.6916C15.4343 15.8083 15.6029 15.875 15.7788 15.88C15.9548 15.885 16.1269 15.828 16.265 15.719C16.4031 15.61 16.4985 15.456 16.5343 15.2838L17.5302 9.416L18.5261 13.6116C18.5623 13.7605 18.6433 13.8947 18.7581 13.9962C18.873 14.0977 19.0163 14.1616 19.1686 14.1792C19.321 14.1969 19.475 14.1674 19.6101 14.0948C19.7452 14.0223 19.8547 13.9101 19.924 13.7734L21.2079 11.1721H22.6417C22.6417 11.4419 22.6417 11.7176 22.6417 11.9933C22.6215 14.556 21.6765 17.0254 19.9803 18.9479C18.2841 20.8705 15.9505 22.1171 13.4082 22.4589C10.8659 22.8007 8.28554 22.2148 6.14094 20.8086C3.99634 19.4024 2.43152 17.2705 1.73386 14.8043H0.329998C1.0149 17.6615 2.72625 20.168 5.13908 21.8477C7.5519 23.5274 10.4981 24.2633 13.4183 23.9157C16.3385 23.5681 19.0292 22.1613 20.9795 19.9623C22.9298 17.7633 24.0038 14.9253 23.9976 11.9873C23.9976 11.7236 23.9976 11.4479 23.9976 11.1781Z" fill="#EE5050"/>
<path d="M11.9988 1.39128e-05C8.8165 1.39128e-05 5.76457 1.26296 3.51436 3.51103C1.26415 5.75909 0 8.80812 0 11.9874H0C0 12.2631 0 12.5388 0.0299969 12.8085C0.0268077 12.8644 0.0268077 12.9204 0.0299969 12.9763C0.0299969 12.9763 0.0299969 13.0423 0.0299969 13.0722L0.0659933 13.3839C0.0659933 13.5457 0.107989 13.7076 0.131987 13.8694H2.99969C3.13902 13.8694 3.2755 13.83 3.39334 13.7557C3.51119 13.6815 3.60559 13.5754 3.66563 13.4498L4.63753 11.4839L5.81941 16.3987C5.86165 16.5641 5.95914 16.7101 6.09574 16.8126C6.23235 16.915 6.39988 16.9678 6.57061 16.9622C6.74135 16.9567 6.90506 16.893 7.03465 16.7818C7.16424 16.6706 7.25195 16.5185 7.28326 16.3508L8.16517 11.1602L9.06507 18.952C9.0858 19.1343 9.17323 19.3024 9.31056 19.4241C9.4479 19.5458 9.62542 19.6125 9.809 19.6113C9.99192 19.6123 10.1687 19.5455 10.305 19.4236C10.4414 19.3018 10.5276 19.1337 10.5469 18.952L12.1848 4.96877C12.2004 4.89539 12.2005 4.81955 12.1852 4.74611C12.1698 4.67267 12.1393 4.60323 12.0955 4.54225C12.0518 4.48127 11.9958 4.43007 11.9311 4.39193C11.8664 4.3538 11.7945 4.32956 11.7199 4.32077C11.6453 4.31198 11.5697 4.31883 11.4979 4.34088C11.4262 4.36293 11.3598 4.3997 11.303 4.44884C11.2463 4.49798 11.2004 4.55841 11.1683 4.62626C11.1363 4.69411 11.1188 4.7679 11.1169 4.8429L9.803 16.0451L8.96308 8.75078C8.94492 8.57059 8.86154 8.40323 8.72858 8.28013C8.59563 8.15703 8.42226 8.08666 8.24104 8.08224C8.05982 8.07783 7.88323 8.13967 7.74443 8.25615C7.60562 8.37263 7.51417 8.53573 7.48724 8.71482L6.48534 14.5766L5.49544 10.3811C5.4498 10.1881 5.32946 10.0211 5.16077 9.91658C4.99209 9.8121 4.78883 9.77868 4.59553 9.82365C4.48797 9.84943 4.38725 9.89813 4.30027 9.96641C4.2133 10.0347 4.14211 10.1209 4.09158 10.2192L2.81371 12.8145H1.37986C1.37986 12.5448 1.34386 12.2691 1.34386 11.9934C1.34672 9.41525 2.2855 6.92568 3.98604 4.98652C5.68658 3.04736 8.03344 1.79026 10.5912 1.44842C13.149 1.10658 15.7441 1.70323 17.895 3.12765C20.0459 4.55208 21.6067 6.7076 22.2877 9.19431H23.6856C23.0567 6.57187 21.561 4.23789 19.4404 2.56954C17.3198 0.901177 14.698 -0.00409306 11.9988 1.39128e-05Z" fill="#EE5050"/>
</svg>
