<svg width="32" height="32" viewBox="0 0 32 32" fill="none" xmlns="http://www.w3.org/2000/svg">
<path d="M31.9591 14.8997V14.8918C31.9551 14.8307 31.9492 14.7696 31.9446 14.7078C31.94 14.6461 31.9347 14.5765 31.9288 14.5141V14.499C31.8967 14.1517 31.8528 13.8073 31.7969 13.4657H27.9698C27.7832 13.4651 27.6002 13.517 27.442 13.6156C27.2838 13.7142 27.1569 13.8553 27.0758 14.0227L25.7842 16.6436L24.2448 10.1328C24.1925 9.90927 24.0642 9.7107 23.8815 9.57088C23.6988 9.43105 23.4732 9.35863 23.243 9.36591C23.0127 9.37319 22.7922 9.45973 22.6188 9.61081C22.4454 9.76189 22.3299 9.96816 22.292 10.1945L21.1158 17.1126L19.9179 6.70461C19.8924 6.46144 19.777 6.23641 19.5942 6.07325C19.4115 5.91009 19.1744 5.82047 18.929 5.82179C18.6839 5.82042 18.447 5.90977 18.2643 6.07253C18.0816 6.23528 17.966 6.45983 17.94 6.70265L15.7519 25.3733C15.7295 25.5614 15.7829 25.7507 15.9003 25.8996C16.0177 26.0486 16.1895 26.1451 16.3782 26.1681C16.4062 26.1714 16.4343 26.173 16.4625 26.1727C16.6383 26.1723 16.8078 26.1075 16.9388 25.9908C17.0698 25.8741 17.1532 25.7135 17.1733 25.5395L18.9204 10.6024L20.0412 20.324C20.0684 20.5616 20.1808 20.7814 20.3577 20.9429C20.5346 21.1045 20.7641 21.1971 21.004 21.2036C21.2439 21.21 21.478 21.13 21.6634 20.9782C21.8489 20.8264 21.973 20.613 22.0131 20.3772L23.3422 12.5606L24.6641 18.1616C24.711 18.3609 24.8186 18.5409 24.9722 18.6768C25.1258 18.8128 25.3179 18.898 25.5221 18.9209C25.7262 18.9438 25.9325 18.9032 26.1126 18.8046C26.2927 18.7061 26.4377 18.5545 26.5279 18.3705L28.2361 14.9029H30.1441C30.1718 15.2655 30.1869 15.6307 30.1869 16.0006C30.1966 19.4309 28.9542 22.7477 26.6912 25.333C24.4282 27.9182 21.299 29.5956 17.8867 30.0525C14.4744 30.5094 11.0117 29.7147 8.14392 27.8165C5.27613 25.9183 3.19882 23.046 2.2991 19.7348H0.443848C1.34788 23.5415 3.62585 26.8839 6.84373 29.1253C10.0616 31.3666 13.9946 32.3503 17.8934 31.8889C21.7923 31.4275 25.3846 29.5533 27.9859 26.6234C30.5873 23.6934 32.0161 19.9123 32 16.0006C31.9973 15.6281 31.9835 15.2622 31.9591 14.8997Z" fill="#15D671"/>
<path d="M15.9976 0C13.8928 0.00396424 11.8094 0.420947 9.86628 1.22713C7.9232 2.03331 6.15854 3.21291 4.67302 4.69858C3.18751 6.18424 2.01026 7.94688 1.20847 9.88585C0.406669 11.8248 -0.00395765 13.9021 2.87487e-05 15.9992C2.87487e-05 16.3684 0.0145067 16.7343 0.0389003 17.0969C0.0435153 17.1711 0.0507681 17.2453 0.0560424 17.3189C0.0560424 17.3609 0.0619856 17.4023 0.0659413 17.4437C0.0784678 17.5829 0.0929831 17.7242 0.110125 17.866V17.8903C0.135177 18.1045 0.164403 18.3177 0.197807 18.5301H4.02496C4.21154 18.5308 4.39447 18.4788 4.55267 18.3802C4.71086 18.2817 4.83787 18.1405 4.91897 17.9731L6.2105 15.3522L7.74995 21.8631C7.80186 22.0868 7.93007 22.2856 8.11271 22.4257C8.29535 22.5657 8.52112 22.6383 8.75148 22.631C8.98183 22.6237 9.20247 22.537 9.37584 22.3857C9.5492 22.2344 9.66453 22.0279 9.7021 21.8013L10.8783 14.8832L12.0781 25.2932C12.1036 25.5364 12.219 25.7614 12.4018 25.9246C12.5845 26.0877 12.8217 26.1774 13.0671 26.176C13.3122 26.1774 13.5491 26.088 13.7318 25.9253C13.9145 25.7625 14.03 25.538 14.056 25.2952L16.2396 6.62447C16.2588 6.43786 16.2035 6.25123 16.0857 6.1049C15.9679 5.95857 15.7971 5.86431 15.6101 5.84248C15.4231 5.82064 15.235 5.873 15.0864 5.98823C14.9379 6.10347 14.8408 6.27232 14.8162 6.45829L13.0697 21.3947L11.9542 11.6784C11.927 11.4408 11.8146 11.2211 11.6377 11.0595C11.4608 10.8979 11.2313 10.8053 10.9914 10.7989C10.7515 10.7924 10.5173 10.8724 10.3319 11.0242C10.1465 11.176 10.0224 11.3894 9.98229 11.6252L8.65317 19.4419L7.33391 13.8414C7.28702 13.6421 7.17941 13.4622 7.0258 13.3262C6.87219 13.1903 6.68013 13.105 6.47596 13.0822C6.27179 13.0593 6.06553 13.0999 5.88544 13.1984C5.70536 13.297 5.56029 13.4486 5.47013 13.6326L3.76192 17.1002H1.84997C1.82228 16.7384 1.80844 16.3726 1.80844 16.0025C1.79879 12.5722 3.04123 9.25538 5.30422 6.67011C7.56722 4.08484 10.6964 2.40747 14.1087 1.95055C17.521 1.49363 20.9837 2.28832 23.8515 4.18657C26.7192 6.08481 28.7965 8.95711 29.6963 12.2682H31.5588C30.7257 8.77874 28.7373 5.67048 25.9141 3.44475C23.091 1.21901 19.5977 0.00553202 15.9976 0Z" fill="#15D671"/>
</svg>
