<svg width="26" height="26" viewBox="0 0 26 26" fill="none" xmlns="http://www.w3.org/2000/svg">
<path d="M25.9667 12.1059V12.0995C25.9635 12.0498 25.9586 12.0002 25.9549 11.95C25.9511 11.8999 25.9469 11.8433 25.942 11.7926V11.7803C25.916 11.4982 25.8803 11.2183 25.8349 10.9408H22.7253C22.5737 10.9403 22.4251 10.9825 22.2966 11.0626C22.168 11.1427 22.0649 11.2573 21.999 11.3934L20.9496 13.5229L19.6988 8.23279C19.6563 8.05119 19.552 7.88985 19.4036 7.77624C19.2552 7.66264 19.0719 7.60379 18.8848 7.60971C18.6978 7.61562 18.5185 7.68594 18.3777 7.80869C18.2368 7.93144 18.143 8.09904 18.1121 8.28296L17.1565 13.9039L16.1832 5.44741C16.1625 5.24983 16.0687 5.06699 15.9202 4.93442C15.7717 4.80186 15.5791 4.72904 15.3797 4.73012C15.1805 4.729 14.9881 4.8016 14.8396 4.93384C14.6912 5.06607 14.5973 5.24852 14.5762 5.44581L12.7983 20.6157C12.7802 20.7686 12.8235 20.9223 12.9189 21.0433C13.0143 21.1644 13.1539 21.2428 13.3072 21.2615C13.3299 21.2642 13.3528 21.2654 13.3757 21.2653C13.5185 21.2649 13.6562 21.2123 13.7627 21.1174C13.8691 21.0226 13.9369 20.8921 13.9532 20.7508L15.3727 8.61439L16.2834 16.5132C16.3055 16.7062 16.3968 16.8848 16.5405 17.0161C16.6842 17.1473 16.8707 17.2225 17.0656 17.2278C17.2605 17.2331 17.4508 17.168 17.6015 17.0447C17.7521 16.9213 17.853 16.748 17.8855 16.5564L18.9655 10.2054L20.0395 14.7562C20.0776 14.9182 20.165 15.0644 20.2898 15.1748C20.4147 15.2853 20.5707 15.3546 20.7366 15.3732C20.9025 15.3917 21.0701 15.3587 21.2164 15.2787C21.3627 15.1986 21.4806 15.0754 21.5538 14.926L22.9417 12.1085H24.492C24.5145 12.4031 24.5268 12.6999 24.5268 13.0004C24.5346 15.7875 23.5252 18.4824 21.6865 20.5829C19.8478 22.6835 17.3053 24.0463 14.5328 24.4176C11.7603 24.7888 8.94692 24.1431 6.61684 22.6008C4.28676 21.0585 2.59895 18.7248 1.86793 16.0345H0.360535C1.09506 19.1274 2.94591 21.8431 5.56044 23.6642C8.17497 25.4853 11.3705 26.2845 14.5383 25.9096C17.7061 25.5348 20.6248 24.012 22.7385 21.6314C24.8521 19.2508 26.013 16.1787 25.9999 13.0004C25.9977 12.6978 25.9865 12.4005 25.9667 12.1059Z" fill="#15D671"/>
<path d="M12.998 0C11.2879 0.00322094 9.5951 0.342019 8.01635 0.997043C6.4376 1.65207 5.00381 2.61049 3.79683 3.81759C2.58985 5.0247 1.63334 6.45684 0.981879 8.03226C0.330418 9.60767 -0.00321559 11.2955 2.33583e-05 12.9994C2.33583e-05 13.2993 0.0117867 13.5966 0.0316065 13.8912C0.0353562 13.9515 0.0412491 14.0118 0.0455344 14.0716C0.0455344 14.1057 0.0503633 14.1394 0.0535774 14.173C0.0637551 14.2861 0.0755487 14.4009 0.0894762 14.5162V14.5359C0.109832 14.7099 0.133577 14.8832 0.160718 15.0557H3.27028C3.42188 15.0562 3.57051 15.014 3.69904 14.9339C3.82757 14.8539 3.93077 14.7392 3.99666 14.6032L5.04603 12.4737L6.29684 17.7637C6.33902 17.9455 6.44318 18.1071 6.59158 18.2209C6.73998 18.3347 6.92341 18.3936 7.11057 18.3877C7.29774 18.3818 7.47701 18.3113 7.61787 18.1884C7.75872 18.0655 7.85243 17.8976 7.88296 17.7136L8.83859 12.0926L9.81348 20.5507C9.83422 20.7483 9.92795 20.9312 10.0764 21.0637C10.2249 21.1963 10.4176 21.2691 10.617 21.268C10.8161 21.2691 11.0086 21.1965 11.1571 21.0643C11.3055 20.9321 11.3994 20.7496 11.4205 20.5523L13.1946 5.38238C13.2102 5.23077 13.1654 5.07913 13.0696 4.96023C12.9739 4.84133 12.8351 4.76475 12.6832 4.74701C12.5313 4.72927 12.3784 4.77181 12.2577 4.86544C12.137 4.95907 12.0581 5.09626 12.0381 5.24736L10.6191 17.3832L9.71278 9.48868C9.69066 9.29567 9.59936 9.11711 9.45564 8.98581C9.31192 8.85452 9.12544 8.77934 8.93053 8.77408C8.73561 8.76882 8.54533 8.83383 8.39469 8.95718C8.24405 9.08053 8.14319 9.25392 8.11061 9.44546L7.0307 15.7965L5.9588 11.2462C5.92071 11.0842 5.83327 10.938 5.70846 10.8276C5.58365 10.7171 5.42761 10.6478 5.26172 10.6293C5.09583 10.6107 4.92824 10.6437 4.78192 10.7237C4.63561 10.8038 4.51773 10.927 4.44448 11.0765L3.05656 13.8939H1.5031C1.4806 13.6 1.46936 13.3027 1.46936 13.002C1.46152 10.2149 2.471 7.52 4.30968 5.41947C6.14836 3.31893 8.69082 1.95607 11.4633 1.58482C14.2358 1.21357 17.0492 1.85926 19.3793 3.40158C21.7094 4.94391 23.3972 7.27765 24.1282 9.96795H25.6415C24.9646 7.13273 23.349 4.60727 21.0552 2.79886C18.7614 0.990446 15.9231 0.00449477 12.998 0V0Z" fill="#15D671"/>
</svg>
